<svg width="18" height="18" viewBox="0 0 18 18" fill="none" xmlns="http://www.w3.org/2000/svg">
<path d="M8.99909 10.8667L2.46575 17.4001C2.22131 17.6445 1.9102 17.7667 1.53242 17.7667C1.15464 17.7667 0.843533 17.6445 0.599089 17.4001C0.354644 17.1556 0.232422 16.8445 0.232422 16.4667C0.232422 16.089 0.354644 15.7778 0.599089 15.5334L7.13242 9.00006L0.599089 2.46673C0.354644 2.22229 0.232422 1.91118 0.232422 1.5334C0.232422 1.15562 0.354644 0.84451 0.599089 0.600065C0.843533 0.355621 1.15464 0.233398 1.53242 0.233398C1.9102 0.233398 2.22131 0.355621 2.46575 0.600065L8.99909 7.1334L15.5324 0.600065C15.7769 0.355621 16.088 0.233398 16.4658 0.233398C16.8435 0.233398 17.1546 0.355621 17.3991 0.600065C17.6435 0.84451 17.7658 1.15562 17.7658 1.5334C17.7658 1.91118 17.6435 2.22229 17.3991 2.46673L10.8658 9.00006L17.3991 15.5334C17.6435 15.7778 17.7658 16.089 17.7658 16.4667C17.7658 16.8445 17.6435 17.1556 17.3991 17.4001C17.1546 17.6445 16.8435 17.7667 16.4658 17.7667C16.088 17.7667 15.7769 17.6445 15.5324 17.4001L8.99909 10.8667Z" fill="black"/>
</svg>
